<svg width="33" height="27" viewBox="0 0 33 27" fill="none" xmlns="http://www.w3.org/2000/svg">
<path d="M28.7331 3.49108C28.1143 2.98491 27.2751 2.70056 26.4 2.70056C25.525 2.70056 24.6858 2.98491 24.0669 3.49108L11.55 13.7322V17.55H16.2162L28.7331 7.30888C29.3518 6.80256 29.6993 6.11593 29.6993 5.39998C29.6993 4.68404 29.3518 3.99741 28.7331 3.49108Z" fill="white"/>
<path fill-rule="evenodd" clip-rule="evenodd" d="M3.30005 8.10002C3.30005 7.38394 3.64773 6.69718 4.2666 6.19084C4.88547 5.68449 5.72483 5.40002 6.60005 5.40002H13.2C13.6377 5.40002 14.0573 5.54226 14.3668 5.79543C14.6762 6.0486 14.85 6.39198 14.85 6.75002C14.85 7.10807 14.6762 7.45144 14.3668 7.70462C14.0573 7.95779 13.6377 8.10002 13.2 8.10002H6.60005V21.6H23.1V16.2C23.1 15.842 23.2739 15.4986 23.5833 15.2454C23.8928 14.9923 24.3124 14.85 24.75 14.85C25.1877 14.85 25.6073 14.9923 25.9168 15.2454C26.2262 15.4986 26.4 15.842 26.4 16.2V21.6C26.4 22.3161 26.0524 23.0029 25.4335 23.5092C24.8146 24.0156 23.9753 24.3 23.1 24.3H6.60005C5.72483 24.3 4.88547 24.0156 4.2666 23.5092C3.64773 23.0029 3.30005 22.3161 3.30005 21.6V8.10002Z" fill="white"/>
</svg>
